# xmcd
#
# Track frame offsets: 
#        150
#        13452
#        23335
#        30593
#        42765
#        54615
#        66186
#        76537
#        86106
#        97758
#
# Disc length: 1429 seconds
#
# Revision: 0
# Processed by: cddbd v1.5PL3 Copyright (c) Steve Scherf et al.
# Submitted via: ExactAudioCopy v0.95a4
#
DISCID=6a05930a
DTITLE=Various Artist - Kings of Country   Volume 1
DYEAR=2002
DGENRE=Country
TTITLE0=Kenny Rogers/Ruby
TTITLE1=D. Dudley/Six Days on the Road
TTITLE2=Buck Owens/You're For Me
TTITLE3=F. Fender/Before The Next Teardrop Falls
TTITLE4=D. Gibson/Oh Lonesome Me
TTITLE5=Hank Locklin/Send Me the Pillow
TTITLE6=J. Rogers/Kisses Sweeter Than Wine
TTITLE7=George Jones/Old Brush Arbors
TTITLE8=Willie Nelson/Touch Me
TTITLE9=N. Miller/From a Jack to a King
EXTD=
EXTT0=
EXTT1=
EXTT2=
EXTT3=
EXTT4=
EXTT5=
EXTT6=
EXTT7=
EXTT8=
EXTT9=
PLAYORDER=
